HIERARCHY
ROOT Hips
{
	OFFSET	0.00	0.00	0.00
	CHANNELS 6 Xposition Yposition Zposition Zrotation Xrotation Yrotation
	JOINT Spine
	{
		OFFSET	 0.00	0.01	 0.00
		CHANNELS 3 Zrotation Xrotation Yrotation
		JOINT Spine1
		{
			OFFSET	 0.00	 2.45913012437421	 0.00
			CHANNELS 3 Zrotation Xrotation Yrotation
            JOINT Neck
            {
                OFFSET	 0.00	 2.48462964506057	 0.00
                CHANNELS 3 Zrotation Xrotation Yrotation
                JOINT Head
                {
                    OFFSET	 0.00	 0.927524780924562	 0.00
                    CHANNELS 3 Zrotation Xrotation Yrotation
                    End Site 
                    {
                        OFFSET	 0.00	 1.14999962169752	 0.00
                    }
                }
            }
			JOINT LeftShoulder
			{
				OFFSET	 0.00	 2.48462964506057	 0.00
				CHANNELS 3 Zrotation Xrotation Yrotation
				JOINT LeftUpArm
				{
					OFFSET	 0.00	 1.24881979654096	 0.00
					CHANNELS 3 Zrotation Xrotation Yrotation
					JOINT LeftForeArm
					{
						OFFSET	 0.00	2.59758046908119	 0.00
						CHANNELS 3 Zrotation Xrotation Yrotation
						JOINT LeftHand
						{
							OFFSET	 0.00	2.45542024364365	 0.00
							CHANNELS 3 Zrotation Xrotation Yrotation
							JOINT LeftHandThumb 
							{
								OFFSET	 0.00	0.00	 0.00
								CHANNELS 3 Zrotation Xrotation Yrotation
								End Site
								{
									OFFSET	 0.00	0.00	1.00000003353624
								}
							}
							JOINT L_Wrist_End 
							{
								OFFSET	 0.00	0.99999967115358	 0.00
								CHANNELS 3 Zrotation Xrotation Yrotation
								End Site 
								{
									OFFSET	 0.00	 0.00	 0.00
								}
							}
						}
					}
				}
			}
			JOINT RightShoulder
			{
				OFFSET	 0.00	 2.48462964506057	 0.00
				CHANNELS 3 Zrotation Xrotation Yrotation
				JOINT RightUpArm
				{
					OFFSET	 0.00	 1.24881979654096	 0.00
					CHANNELS 3 Zrotation Xrotation Yrotation
					JOINT RightForeArm
					{
						OFFSET	 0.00	2.59758046908119	 0.00
						CHANNELS 3 Zrotation Xrotation Yrotation
						JOINT RightHand
						{
							OFFSET	 0.00	2.45542024364365	 0.00
							CHANNELS 3 Zrotation Xrotation Yrotation
							JOINT RightHandThumb 
							{
								OFFSET	 0.00	0.00	 0.00
								CHANNELS 3 Zrotation Xrotation Yrotation
								End Site
								{
									OFFSET	 0.00	0.00	1.00000003353624
								}
							}
							JOINT R_Wrist_End 
							{
								OFFSET	 0.00	0.99999967115358	 0.00
								CHANNELS 3 Zrotation Xrotation Yrotation
								End Site 
								{
									OFFSET	 0.00	 0.00	 0.00
								}
							}
						}
					}
				}
			}
		}
	}
	JOINT LeftUpLeg
	{
		OFFSET	 1.2719394002717	 0.00	 0.00
		CHANNELS 3 Zrotation Xrotation Yrotation
		JOINT LeftLowLeg
		{
			OFFSET	 0.00	-4.3429100912261	 0.00
			CHANNELS 3 Zrotation Xrotation Yrotation
			JOINT LeftFoot
			{
				OFFSET	 0.00	-4.48767017425826	 0.00
				CHANNELS 3 Zrotation Xrotation Yrotation
				JOINT LeftToeBase
                {
                    OFFSET	 0.00	0.00	 1.51507020887566
                    CHANNELS 3 Zrotation Xrotation Yrotation
                    End Site 
                    {
                        OFFSET	 0.00	0.00	 0.75000010571191
                    }
                }
			}
		}
	}
	JOINT RightUpLeg
	{
		OFFSET	 -1.2719393604653	 0.00	 0.00
		CHANNELS 3 Zrotation Xrotation Yrotation
		JOINT RightLowLeg
		{
			OFFSET	 0.00	-4.3429100912261	 0.00
			CHANNELS 3 Zrotation Xrotation Yrotation
			JOINT RightFoot
			{
				OFFSET	 0.00	-4.48767017425826	 0.00
				CHANNELS 3 Zrotation Xrotation Yrotation
				JOINT RightToeBase
                {
                    OFFSET	 0.00	0.00	 1.51507020887566
                    CHANNELS 3 Zrotation Xrotation Yrotation
                    End Site 
                    {
                        OFFSET	 0.00	0.00	 0.749999965609858
                    }
                }   
			}
		}
	}
}
MOTION 
Frames:	13 
Frame Time: 0.02 
  -3.7306298828125 -1.8210800170898438 9.216170043945313 101.89 82.9175 2744.48 -4.86092 -22.3311 3.14927 -11.2507 10.6887 2.08983 14.2196 49.5027 411.267 -85.1047 -22.2381 -442.829 -107.693 -15.5534 368.454 -24.8843 -6.17263 53.7116 0.0 98.6674 0.0 76.8903 34.5627 -1.81859 0.0 0.0 0.0 0.0 0.0 0.0 111.172 -12.6176 -361.039 55.6919 -9.05718 -8.16237 0.0 15.8738 0.0 -32.1209 -1.70962 -1.57956 0.0 0.0 0.0 0.0 0.0 0.0 -13.6484 -2.22004 13.8563 0.0 14.4168 0.0 -11.3474 -2.6511002 -0.177109 0.0 -22.96365 0.0 -8.92952 -7.77921 -23.7588 0.0 60.8665 0.0 49.5028 43.113197 -11.4853 0.0 -19.60562 0.0 
  -3.7272299194335936 -1.8100399780273437 9.211820068359375 101.744 82.7803 2745.25 -4.93223 -21.9736 3.2538 -11.5131 10.6553 2.26837 13.5638 49.3739 411.755 -85.1793 -21.9724 -442.662 -107.7772 -15.571 368.49 -24.6993 -5.98789 53.6496 0.0 98.7623 0.0 77.1131 34.5626 -1.98764 0.0 0.0 0.0 0.0 0.0 0.0 111.28 -12.4683 -361.123 55.5967 -8.83126 -8.31209 0.0 15.8938 0.0 -32.1193 -1.86016 -1.20622 0.0 0.0 0.0 0.0 0.0 0.0 -13.7062 -2.25529 13.5492 0.0 14.3738 0.0 -11.5871 -2.8439007 -0.608436 0.0 -22.74965 0.0 -9.31677 -8.24761 -23.2664 0.0 62.2955 0.0 49.8757 44.1721 -10.6789 0.0 -19.85253 0.0 
  -3.7236599731445312 -1.7938999938964844 9.208380126953125 101.978 82.4914 2745.62 -5.1555 -21.6897 3.26599 -11.6787 10.54 2.48095 12.9497 49.2553 412.171 -85.2185 -21.7072 -442.42 -107.781296 -15.5879 368.654 -24.5921 -5.7781 53.5619 0.0 98.8809 0.0 77.1305 34.6664 -2.08346 0.0 0.0 0.0 0.0 0.0 0.0 111.281296 -12.3403 -361.324 55.5897 -8.47601 -8.37205 0.0 15.8833 0.0 -32.3084 -1.93452 -1.31595 0.0 0.0 0.0 0.0 0.0 0.0 -13.7408 -2.57106 13.4496 0.0 14.5983 0.0 -12.8595 -2.8521996 -1.77333 0.0 -22.96685 0.0 -9.84636 -9.13402 -22.8877 0.0 64.2936 0.0 50.5534 44.4753 -10.9969 0.0 -20.28916 0.0 
  -3.7190701293945314 -1.7724200439453126 9.206270141601562 102.384 82.1596 2745.8 -5.42001 -21.4139 3.24301 -11.8365 10.4308 2.69669 12.4218 49.0314 412.523 -85.211 -21.4983 -442.223 -107.6928 -15.607 368.683 -24.516 -5.60267 53.7072 0.0 99.0225 0.0 77.0055 34.6993 -1.78909 0.0 0.0 0.0 0.0 0.0 0.0 111.2192 -12.2039 -361.416 55.6358 -8.21923 -8.34512 0.0 15.9825 0.0 -32.3261 -1.91914 -1.11181 0.0 0.0 0.0 0.0 0.0 0.0 -13.8197 -2.93989 13.2253 0.0 14.7197 0.0 -13.5338 -2.8596992 -2.49473 0.0 -23.10049 0.0 -10.4449 -10.2654 -22.5819 0.0 66.5468 0.0 50.7978 44.4497 -11.4414 0.0 -20.33897 0.0 
  -3.713240051269531 -1.7461900329589843 9.206840209960937 102.104 81.9579 2746.5 -5.5907 -20.9176 3.34958 -12.0136 10.2167 2.95135 11.8894 48.9457 412.928 -85.2092 -21.2855 -442.126 -107.5577 -15.5703 368.831 -24.5015 -5.45044 53.7398 0.0 99.0877 0.0 76.9342 34.7934 -1.54042 0.0 0.0 0.0 0.0 0.0 0.0 111.1091 -12.1299 -361.553 55.7235 -7.90268 -8.4422 0.0 16.0727 0.0 -32.2493 -1.41103 -1.4057 0.0 0.0 0.0 0.0 0.0 0.0 -13.892 -3.11405 13.0751 0.0 14.6792 0.0 -14.123 -2.8379002 -3.04973 0.0 -22.94358 0.0 -10.936 -11.4316 -21.893 0.0 68.7518 0.0 50.1623 44.951202 -11.235 0.0 -19.81969 0.0 
  -3.7115399169921877 -1.7213999938964843 9.21197998046875 102.016 81.9092 2747.17 -5.73872 -20.4889 3.36067 -12.0949 10.1789 3.14382 11.3814 48.9024 413.272 -85.2126 -21.0316 -442.074 -107.4404 -15.4626 369.013 -24.501 -5.33826 53.7615 0.0 99.0982 0.0 76.8224 34.812 -1.3717 0.0 0.0 0.0 0.0 0.0 0.0 110.9915 -12.0394 -361.564 55.8071 -7.69769 -8.52908 0.0 16.2248 0.0 -32.259 -1.30959 -2.29837 0.0 0.0 0.0 0.0 0.0 0.0 -13.8625 -3.19602 12.5125 0.0 14.6779 0.0 -14.9789 -2.6945 -3.40207 0.0 -23.335701 0.0 -11.2506 -12.3251 -21.3811 0.0 70.4842 0.0 49.3915 45.2914 -10.9757 0.0 -19.19846 0.0 
  -3.712659912109375 -1.6942799377441407 9.218170166015625 102.724 82.0064 2747.1 -5.81999 -20.022 3.33474 -12.0549 10.1011 3.23791 11.0178 48.9286 413.427 -85.2455 -20.7997 -441.848 -107.348404 -15.4044 369.118 -24.4818 -5.21923 53.8918 0.0 99.07 0.0 76.8452 34.7486 -1.08394 0.0 0.0 0.0 0.0 0.0 0.0 110.8361 -11.9733 -361.5 55.8254 -7.59683 -8.766 0.0 16.1786 0.0 -32.0684 0.0691346 -1.77431 0.0 0.0 0.0 0.0 0.0 0.0 -13.6685 -3.18382 11.9478 0.0 14.48 0.0 -15.6548 -2.6879005 -3.72748 0.0 -23.27844 0.0 -11.2795 -13.166 -20.8443 0.0 71.8 0.0 49.2387 45.2881 -11.3319 0.0 -19.22791 0.0 
  -3.7154000854492186 -1.6664700317382812 9.22385009765625 104.125 82.035 2746.38 -5.92703 -19.7642 3.23987 -11.941 10.1139 3.29609 10.595 49.043 413.642 -85.3088 -20.5294 -441.661 -107.2624 -15.3402 369.121 -24.5044 -5.12751 54.114 0.0 98.9601 0.0 76.9074 34.7289 -1.01394 0.0 0.0 0.0 0.0 0.0 0.0 110.6639 -11.8468 -361.478 55.8831 -7.45039 -8.7249 0.0 16.2309 0.0 -32.0418 0.500205 -1.78375 0.0 0.0 0.0 0.0 0.0 0.0 -13.4667 -3.30766 11.2964 0.0 14.3602 0.0 -15.4621 -2.6413994 -3.68013 0.0 -23.33292 0.0 -11.2414 -14.0698 -20.3648 0.0 72.6686 0.0 48.5945 45.2459 -11.4435 0.0 -19.88498 0.0 
  -3.718550109863281 -1.6375999450683594 9.225650024414062 105.91 82.0819 2745.4 -6.0097 -19.3889 3.15694 -11.8337 9.98792 3.30595 10.3658 49.0195 413.618 -85.2894 -20.3039 -441.454 -107.128 -15.2546 369.204 -24.5311 -4.97928 54.4391 0.0 98.8603 0.0 77.191 34.4596 -0.83443 0.0 0.0 0.0 0.0 0.0 0.0 110.5838 -11.8824 -361.378 55.8306 -7.41489 -8.79122 0.0 16.4742 0.0 -32.1566 0.516119 -1.84756 0.0 0.0 0.0 0.0 0.0 0.0 -13.304 -3.43879 10.5361 0.0 14.1491 0.0 -14.6161 -2.655899 -3.17361 0.0 -23.41109 0.0 -11.164 -14.9147 -20.0431 0.0 73.0512 0.0 47.8608 44.8839 -11.7368 0.0 -19.69728 0.0 
  -3.7177899169921873 -1.6047799682617188 9.222039794921875 107.823 82.0461 2744.18 -6.06794 -18.9374 3.16559 -11.7211 9.6487 3.33139 10.0168 49.1425 413.77 -85.3351 -20.0443 -441.372 -107.0531 -15.1403 369.269 -24.506 -4.84898 54.7575 0.0 98.7386 0.0 77.28 34.2687 -0.926415 0.0 0.0 0.0 0.0 0.0 0.0 110.5167 -11.9186 -361.319 55.7113 -7.39831 -8.95883 0.0 16.6581 0.0 -32.3079 0.3936 -1.59397 0.0 0.0 0.0 0.0 0.0 0.0 -13.3087 -3.72805 9.48711 0.0 13.9578 0.0 -12.9749 -2.7224007 -1.79582 0.0 -23.40469 0.0 -11.1082 -15.8965 -19.6176 0.0 72.9858 0.0 46.5408 44.573402 -12.021 0.0 -20.494 0.0 
  -3.717460021972656 -1.5756500244140625 9.212849731445312 110.646 81.9407 2742.28 -6.07914 -18.7864 3.09466 -11.6407 9.5986 3.27744 9.90049 49.0906 413.623 -85.3804 -19.8216 -441.246 -106.9694 -14.9897 369.211 -24.4741 -4.70965 55.1912 0.0 98.652 0.0 77.5107 34.0015 -0.829669 0.0 0.0 0.0 0.0 0.0 0.0 110.419205 -11.9032 -361.172 55.6566 -7.43545 -8.92086 0.0 16.798 0.0 -32.407 0.176883 -1.72125 0.0 0.0 0.0 0.0 0.0 0.0 -13.3998 -4.16 7.93808 0.0 13.8213 0.0 -10.2779 -2.771 0.413621 0.0 -23.34657 0.0 -11.0005 -16.7904 -19.3316 0.0 72.2863 0.0 44.3985 44.1215 -11.4054 0.0 -19.789051 0.0 
  -3.7170401000976563 -1.5486300659179688 9.198179931640626 112.366 81.9893 2741.55 -6.00562 -18.4129 3.06353 -11.6908 9.55861 3.20265 9.9179 48.9894 413.38 -85.4977 -19.6648 -441.112 -106.8314 -14.8656 369.139 -24.4601 -4.56164 55.6155 0.0 98.516 0.0 77.6298 33.8722 -0.67473 0.0 0.0 0.0 0.0 0.0 0.0 110.4354 -11.9382 -361.145 55.5336 -7.37515 -8.86347 0.0 16.9106 0.0 -32.4718 0.022525 -1.59194 0.0 0.0 0.0 0.0 0.0 0.0 -13.6221 -4.39898 5.50106 0.0 13.7655 0.0 -7.00535 -2.8052998 3.66565 0.0 -22.95055 0.0 -10.8306 -17.3051 -18.9257 0.0 71.0389 0.0 44.5076 43.4646 -11.6678 0.0 -20.15525 0.0 
  -3.7156201171875 -1.523179931640625 9.177830200195313 113.221 82.0875 2741.7 -5.92458 -17.9243 3.06375 -11.7972 9.5958 3.19317 10.111 48.7153 412.957 -85.7125 -19.5648 -440.967 -106.827896 -14.7359 369.173 -24.2532 -4.318 55.9839 0.0 98.4351 0.0 77.8629 33.759 -0.83127 0.0 0.0 0.0 0.0 0.0 0.0 110.5673 -12.0087 -361.056 55.3255 -7.36926 -8.65803 0.0 16.9905 0.0 -32.4527 0.012194 -1.58606 0.0 0.0 0.0 0.0 0.0 0.0 -14.0179 -4.59433 2.01473 0.0 13.8784 0.0 -3.22402 -2.5461998 8.0537 0.0 -22.59812 0.0 -10.6493 -17.6183 -18.3701 0.0 69.3946 0.0 44.4664 42.682 -11.746 0.0 -20.61141 0.0 
